<svg width="1025" height="1024" xmlns="http://www.w3.org/2000/svg" p-id="728" version="1.1" class="icon">
 <g>
  <title>Layer 1</title>
  <path id="svg_1" p-id="729" fill="#444444" d="m904.04571,332.58057q0,57.70972 -40.88685,98.59657t-98.59657,40.88686t-98.59658,-40.88686t-40.88685,-98.59657t40.88685,-98.59657t98.59658,-40.88686t98.59657,40.88686t40.88685,98.59657zm-439.95428,424.00914q0,-59.46514 -41.69143,-101.15657t-101.15657,-41.69143q-15.43314,0 -30.86629,3.43772l59.46515,23.99086q44.032,17.70057 62.53714,60.85485t0.87771,86.60115q-17.70057,44.032 -61.14743,62.31771t-86.82057,0.58514q-11.99543,-4.53485 -35.40114,-13.97028t-34.88914,-13.97029q18.28571,34.304 52.00457,55.14971t74.31314,20.84572q59.46514,0 101.15657,-41.69143t41.69143,-101.15657l-0.07314,-0.14629zm474.25828,-423.424q0,-71.97257 -51.12685,-123.17257t-123.17257,-51.12685q-72.55772,0 -123.68458,51.12685t-51.12685,123.17257q0,72.55772 51.12685,123.46515t123.68458,50.83428q71.97257,0 123.17257,-50.83428t51.12685,-123.46515zm85.72343,0q0,108.032 -76.288,184.02743t-183.73485,75.99543l-249.70972,182.272q-6.87543,73.728 -62.31771,124.56229t-130.85257,50.83428q-69.12,0 -122.29486,-43.44685t-67.43771,-109.71429l-131.43772,-52.58971l0,-245.17486l222.28115,89.74629q45.12914,-27.42858 98.88914,-27.42858q7.46057,0 19.968,1.17029l162.304,-232.59429q1.17028,-106.86171 77.45828,-182.272t183.14972,-75.41028q107.44686,0 183.73486,76.288t76.288,183.73486l-0.00001,-0.00001z"/>
  <path stroke="null" id="svg_2" p-id="6030" fill="#898989" d="m902.81452,773.35065c0,52.10214 -42.23843,94.35065 -94.35065,94.35065s-94.35065,-42.23843 -94.35065,-94.35065c0,-52.10213 42.23843,-94.35065 94.35065,-94.35065s94.35065,42.23843 94.35065,94.35065z"/>
  <path stroke="null" id="svg_3" p-id="6031" fill="#898989" d="m912.93365,862.71228c-27.40268,21.63303 -61.36692,33.64999 -97.05325,33.64999c-36.10115,0 -70.39221,-12.2935 -97.92059,-34.34134c-72.55425,26.63591 -104.95981,119.71703 -104.95981,162.22889l403.71187,0c0,-42.13476 -32.65696,-134.56225 -103.77823,-161.52497l0,-0.01257z"/>
 </g>
</svg>